<svg xmlns="http://www.w3.org/2000/svg" xmlns:xlink="http://www.w3.org/1999/xlink" viewBox="0 0 60 60" preserveAspectRatio="xMidYMid meet">
  <defs>
    <path id="a" d="M0 .37h58.631V59H.001z"/>
    <path id="c" d="M0 59.598h58.631V.967H0z"/>
  </defs>
  <g fill="none" fill-rule="evenodd">
    <path d="M8 .967h42.631a8 8 0 0 1 8 8v1.016l-12 9.283 12-.46v32.792a8 8 0 0 1-8 8H8.001a8 8 0 0 1-8-8V8.967a8 8 0 0 1 8-8z" fill="#FFF"/>
    <g transform="translate(0 .598)">
      <mask id="b" fill="#fff">
        <use xlink:href="#a"/>
      </mask>
      <path d="M52.131.37H6.5A6.505 6.505 0 0 0 0 6.867v45.633A6.505 6.505 0 0 0 6.5 59h45.631c3.584 0 6.5-2.915 6.5-6.499V17.287l-2.403-.006-5.89-.01 7.433-6.23.86-.72V6.868a6.508 6.508 0 0 0-6.5-6.499m0 2.405a4.095 4.095 0 0 1 4.093 4.094v2.33L43.736 19.663l12.488.025V52.5a4.094 4.094 0 0 1-4.093 4.094H6.5A4.094 4.094 0 0 1 2.406 52.5V6.868A4.095 4.095 0 0 1 6.5 2.774h45.631" fill="#636669" mask="url(#b)"/>
    </g>
    <path fill="#3F9984" d="M38.03 29.734l-3.987 6.016h3.589v2.51h-8.641l4.004-6.015h-3.473v-2.51z"/>
    <path d="M44.712 34.005c0-1.045-.716-1.927-1.944-1.927-1.23 0-1.945.882-1.945 1.927 0 1.081.715 1.913 1.945 1.913 1.228 0 1.944-.832 1.944-1.913zm2.926-4.271v8.526H44.61v-.946h-.033c-.53.846-1.578 1.229-2.576 1.229-2.527 0-4.304-2.111-4.304-4.555 0-2.442 1.746-4.535 4.272-4.535.98 0 2.012.365 2.641 1.112v-.831h3.027z" fill="#3F9984"/>
    <path d="M41.422 47.693v5.268h-3.025v-4.154c0-.814.133-2.244-1.363-2.244-1.23 0-1.58.914-1.58 1.978v4.42h-3.023v-8.526h3.023v1.098h.033c.698-1.03 1.547-1.38 2.728-1.38 2.293 0 3.207 1.445 3.207 3.54M13.801 44.65c0-1.578-1.081-1.594-2.344-1.594h-.548v3.124h.548c1.18 0 2.344 0 2.344-1.53m3.391-.097c0 2.958-1.595 4.255-4.438 4.255h-1.845v4.152H7.654V40.43h4.984c2.692 0 4.554 1.249 4.554 4.123" fill="#5D5A58"/>
    <mask id="d" fill="#fff">
      <use xlink:href="#c"/>
    </mask>
    <path fill="#5D5A58" mask="url(#d)" d="M17.74 52.96h3.024V39.168h-3.023z"/>
    <path d="M25.75 34.005c0-1.045-.715-1.927-1.944-1.927-1.23 0-1.945.882-1.945 1.927 0 1.081.715 1.913 1.945 1.913 1.229 0 1.944-.832 1.944-1.913zm2.925-4.271v8.526H25.65v-.946h-.034c-.53.846-1.577 1.229-2.575 1.229-2.525 0-4.304-2.111-4.304-4.555 0-2.442 1.745-4.535 4.272-4.535.978 0 2.008.365 2.641 1.112v-.831h3.025z" fill="#3F9984" mask="url(#d)"/>
    <path fill="#3F9984" mask="url(#d)" d="M13.934 31.663l5.435 6.597h-4.22l-4.206-5.433h-.034v5.433H7.653V25.73h3.256v5.167h.034l3.94-5.168h4.037z"/>
    <path d="M28.326 48.707c0-1.046-.714-1.928-1.944-1.928-1.231 0-1.946.882-1.946 1.928 0 1.08.715 1.912 1.946 1.912 1.23 0 1.944-.832 1.944-1.912zm2.924-4.273v8.526h-3.025v-.945h-.032c-.533.847-1.579 1.229-2.577 1.229-2.526 0-4.305-2.112-4.305-4.555 0-2.441 1.745-4.536 4.274-4.536.979 0 2.01.367 2.64 1.113v-.832h3.025z" fill="#5D5A58" mask="url(#d)"/>
  </g>
</svg>
